Coordinates
version=1
nRows=12
nColumns=28
inDegrees=yes

Units are S.I. units (second, meters, Newtons, ...)
If the header above contains a line with 'inDegrees', this indicates whether rotational values are in degrees (yes) or radians (no).

endheader
time	bJoint_3	bJoint_4	seatpos	slocangle	soarinout	plocangle	poarinout	hipangle	kneeangle	footangle	lbackangle	uarmleft_out	uarmleft_trn	uarmleft_up	se_inout	se_updown	handleleft_out	handleleft_trn	handleleft_up	uarmright_out	uarmright_trn	uarmright_up	pe_inout	pe_updown	handleright_out	handleright_trn	handleright_up
      7.52000000	      0.00000009	     -0.00000008	     -0.00272953	    -38.61328359	     13.85093396	    -40.19313537	     13.28625909	     94.74136912	      2.65376691	      7.39513603	    -40.52564573	     70.87420558	     -5.95006924	     51.70357987	     65.16541464	    136.27400978	     26.41410097	      8.37257423	      3.75228730	    -49.57075201	   -150.47961808	   -110.68419175	    -30.04330446	    114.96869286	     55.37048966	    -91.72793276	     77.20846452
      7.54000000	      0.00000010	     -0.00000008	     -0.00272779	    -38.47583546	     13.85481394	    -40.06959191	     13.28815452	     94.74638700	      2.64445348	      7.39084047	    -40.53811208	     69.02523487	     -4.92401100	     51.74424206	     66.55343127	    138.10914833	     26.38583894	      9.84969793	      3.77940222	    -49.76404470	   -150.57149451	   -110.39876162	    -30.06251453	    114.53785920	     55.48397366	    -91.73214925	     77.43779138
      7.56000000	      0.00000010	     -0.00000008	     -0.00273167	    -38.34120421	     13.85650972	    -39.90243688	     13.28521221	     94.73523931	      2.66514423	      7.40038355	    -40.54778101	     70.77738725	     -6.80469074	     52.05629839	     66.15661728	    135.63695418	     26.56896437	      8.65500920	      3.89594323	    -50.18448049	   -150.64109283	   -110.07766721	    -30.06442936	    113.94649520	     55.43713611	    -91.62338441	     77.60421300
      7.58000000	      0.00000009	     -0.00000008	     -0.00272719	    -38.21311171	     13.85478187	    -39.75881088	     13.28899761	     94.74811117	      2.64125333	      7.38936451	    -40.56082868	     67.86141323	     -4.88653184	     51.99866310	     67.99940193	    138.80149207	     26.45339903	     10.86601637	      3.89387043	    -50.28295245	   -150.79625451	   -109.70728052	    -30.10858478	    113.44875618	     55.08697933	    -91.71624778	     77.32750650
      7.60000000	      0.00000010	     -0.00000008	     -0.00272836	    -38.07781048	     13.85324006	    -39.60180422	     13.28371087	     94.74474054	      2.64750937	      7.39224991	    -40.57388492	     68.82713578	     -6.05439059	     52.29486573	     68.10563100	    137.36429024	     26.53707980	     10.44565381	      3.91789213	    -50.71180440	   -150.84782904	   -109.41918814	    -30.10742971	    112.87260722	     55.19618776	    -91.59133061	     77.63094660
      7.62000000	      0.00000010	     -0.00000008	     -0.00272699	    -37.94004895	     13.85685263	    -39.46738136	     13.28755750	     94.74868997	      2.64017906	      7.38886903	    -40.58589672	     69.90005481	     -7.28909836	     52.63501710	     68.16620479	    135.82537535	     26.62442665	      9.97051415	      3.92859072	    -50.91937429	   -150.93750794	   -109.11415388	    -30.12383838	    112.39534571	     55.32414196	    -91.59624373	     77.86635510
      7.64000000	      0.00000009	     -0.00000008	     -0.00273239	    -37.82522593	     13.85399847	    -39.32397560	     13.29217869	     94.73319962	      2.66893007	      7.40212969	    -40.59086505	     71.29241671	     -8.77533084	     52.93868396	     67.90750637	    133.81207364	     26.76644667	      9.09447022	      4.06521269	    -51.29441355	   -150.96535986	   -108.85005877	    -30.09436767	    111.88761239	     55.27428515	    -91.49603208	     77.99496678
      7.66000000	      0.00000009	     -0.00000008	     -0.00272947	    -37.68739193	     13.85749286	    -39.16619976	     13.28562777	     94.74156289	      2.65340725	      7.39497015	    -40.60284565	     72.85025080	    -10.31627991	     53.43325513	     67.70154422	    131.74977541	     26.87005499	      8.30676030	      4.07531040	    -51.43963139	   -151.13286845	   -108.46809870	    -30.18349885	    111.31691146	     55.25468881	    -91.55288347	     78.03838590
      7.68000000	      0.00000009	     -0.00000008	     -0.00273198	    -37.55210384	     13.85568579	    -39.04136005	     13.28622620	     94.73435766	      2.66678065	      7.40113831	    -40.61253106	     72.30386213	    -10.29090995	     53.57330271	     68.56183920	    132.08158233	     26.86340451	      8.98258109	      4.11486300	    -51.82057124	   -151.13893551	   -108.25780455	    -30.14699191	    110.85049875	     55.28522820	    -91.43243143	     78.22638222
      7.70000000	      0.00000009	     -0.00000008	     -0.00273150	    -37.43398412	     13.85480357	    -38.90844810	     13.28483137	     94.73574019	      2.66421457	      7.39995476	    -40.62183784	     74.81347563	    -12.40911771	     54.27596199	     67.76201755	    128.99801453	     27.00546141	      7.52236005	      4.13404038	    -52.02855902	   -151.21998492	   -107.96495996	    -30.21040243	    110.37056911	     56.80327619	    -91.41015846	     79.83433583
      7.72000000	      0.00000009	     -0.00000008	     -0.00272940	    -37.29694632	     13.85449072	    -38.77337697	     13.28838810	     94.74174447	      2.65307023	      7.39481470	    -40.63444277	     73.01056822	    -11.44736571	     54.18894126	     69.38127543	    130.81729659	     26.89840745	      9.20097377	      4.12509907	    -52.25499058	   -151.29896926	   -107.67162211	    -30.21283279	    109.87034797	     56.53098960	    -91.40765482	     79.65038352
      7.74000000	      0.00000009	     -0.00000008	     -0.00273359	    -37.17145266	     13.85368125	    -38.60478135	     13.28735644	     94.72977921	      2.67527864	      7.40505785	    -40.63825989	     71.29469293	    -10.66848251	     54.00657198	     70.67320902	    132.37066167	     26.87398147	     10.40858042	      4.28249190	    -52.56900191	   -151.39348744	   -107.33063184	    -30.22654327	    109.25528183	     55.72979729	    -91.37023146	     78.96996065
